<?xml version="1.0" encoding="UTF-8"?>
<svg id="Layer_2" data-name="Layer 2" xmlns="http://www.w3.org/2000/svg" viewBox="0 0 581.38 639.22">
  <defs>
    <style>
      .cls-1 {
        fill: none;
        stroke: #a6d487;
        stroke-linecap: round;
        stroke-linejoin: round;
        stroke-width: 20px;
      }
    </style>
  </defs>
  <g id="Layer_1-2" data-name="Layer 1">
    <path class="cls-1" d="M105.65,629.22c24-53.23,27.37-108.42,0-141.05C-149.68,220.52,160.99-93.63,397.86,43.09c53.19,30.7,105.09,73.09,137.27,160.86,5.8,13.22,6.54,33.76-5.26,53.68-5.03,10.45-9.06,23.56-12.63,37.89l-1.05,15.79c5.93,23.79,26.02,58.49,49.47,95.79,4.03,7.49,6.89,13.84,5.26,15.79-6.99,18.61-25.38,27.59-48.42,32.63l-.09,115.12c-1.32,27.28-16.84,42.45-42.65,48.84l-149.96.69c-33.49-1.38-52.97-11.01-53.66-41.96l1.38-121.76-149.27-154.09c-48.84-79.11,57.1-195.36,148.59-89.43,53.66-92.87,204.31-17.2,150.65,84.61-31.65,40.52-75.79,84.53-125.2,130.01"/>
  </g>
</svg>